 http://www.imdb.com/title/tt1772422/

Set against the turbulent mid 80's of money, privatization, unions and dramatic media evolution: A life-long group of friends find themselves at the bad end of a redundancy pay-out and invest their savings into a racehorse, hoping that one final race can turn their fortunes around


General
Complete name                            : D:downloadsOutside Bet 2012  Dvdrip legend-rg.avi
Format                                   : AVI
Format/Info                              : Audio Video Interleave
File size                                : 766 MiB
Duration                                 : 1h 37mn
Overall bit rate                         : 1 101 Kbps
Writing application                      : Lavf52.61.0

Video
ID                                       : 0
Format                                   : MPEG-4 Visual
Format profile                           : Simple@L3
Format settings, BVOP                    : No
Format settings, QPel                    : No
Format settings, GMC                     : No warppoints
Format settings, Matrix                  : Default (H.263)
Codec ID                                 : XVID
Codec ID/Hint                            : XviD
Duration                                 : 1h 37mn
Bit rate                                 : 960 Kbps
Width                                    : 1 280 pixels
Height                                   : 720 pixels
Display aspect ratio                     : 16:9
Frame rate                               : 29.970 fps
Color space                              : YUV
Chroma subsampling                       : 4:2:0
Bit depth                                : 8 bits
Scan type                                : Progressive
Compression mode                         : Lossy
Bits/(Pixel*Frame)                       : 0.035
Stream size                              : 667 MiB (87%)
Writing library                          : XviD 1.2.1 (UTC 2008-12-04)

Audio
ID                                       : 1
Format                                   : MPEG Audio
Format version                           : Version 1
Format profile                           : Layer 3
Mode                                     : Joint stereo
Mode extension                           : MS Stereo
Codec ID                                 : 55
Codec ID/Hint                            : MP3
Duration                                 : 1h 37mn
Bit rate mode                            : Constant
Bit rate                                 : 128 Kbps
Channel(s)                               : 2 channels
Sampling rate                            : 44.1 KHz
Compression mode                         : Lossy
Stream size                              : 89.0 MiB (12%)
Alignment                                : Aligned on interleaves
Interleave, duration                     : 26 ms (0.78 video frame)

SCREENS:
 
http://lookpic.com/remote-upload.php?img=http://i.imgur.com/nSyrs.png 
http://lookpic.com/remote-upload.php?img=http://i.imgur.com/Zv9iR.png 
http://lookpic.com/remote-upload.php?img=http://i.imgur.com/qmEVM.png

SEED AND HAVE FUN!!!